<svg width="15" height="17" viewBox="0 0 15 17" fill="none" xmlns="http://www.w3.org/2000/svg">
<path d="M7.28995 0C6.3988 0 5.67633 0.723053 5.67633 1.61486V11.7242L3.07272 9.44779C2.40088 8.8603 1.38197 8.92839 0.795659 9.59963C0.208779 10.2709 0.277467 11.2904 0.948706 11.8761L6.22827 16.4941C6.3072 16.5621 6.4012 16.5959 6.48857 16.6477C6.50363 16.6573 6.51629 16.6676 6.53014 16.6754C6.57172 16.6989 6.60486 16.7363 6.64885 16.7568C6.66512 16.7622 6.68199 16.7664 6.69825 16.7718C6.88926 16.8477 7.08931 16.8923 7.28935 16.8923H7.29055H7.29176C7.49181 16.8923 7.69306 16.8477 7.88405 16.7718C7.89912 16.7664 7.91659 16.7622 7.93226 16.7568C7.97504 16.7369 8.00818 16.6989 8.05096 16.6754C8.06602 16.6676 8.07747 16.6561 8.09374 16.6477C8.18111 16.5953 8.2739 16.5621 8.35283 16.4941L13.6324 11.8761C14.3036 11.2904 14.3711 10.2709 13.7854 9.59963C13.198 8.92839 12.1772 8.8603 11.509 9.44779L8.90539 11.7242V1.61486C8.90419 0.723701 8.18238 0 7.28995 0Z" fill="white"/>
</svg>
