<svg width="584" height="582" viewBox="0 0 584 582" fill="none" xmlns="http://www.w3.org/2000/svg">
<g clip-path="url(#clip0_426_756)">
<path d="M121.01 59.66L116.23 63.64C115.63 63.09 114.99 62.69 114.32 62.43C113.65 62.17 112.96 62.05 112.25 62.05C111.54 62.05 110.84 62.2 110.14 62.48C109.44 62.76 108.77 63.16 108.13 63.69C106.97 64.65 106.2 65.78 105.82 67.07C105.44 68.36 105.46 69.74 105.9 71.22C106.33 72.7 107.2 74.22 108.49 75.77C109.82 77.36 111.17 78.5 112.55 79.19C113.93 79.88 115.28 80.14 116.6 79.98C117.92 79.82 119.14 79.27 120.27 78.33C120.9 77.8 121.42 77.23 121.82 76.61C122.22 75.99 122.5 75.34 122.65 74.67C122.8 74 122.82 73.31 122.72 72.61C122.61 71.91 122.36 71.22 121.98 70.53L126.78 66.57C127.51 67.7 128.03 68.94 128.33 70.3C128.63 71.66 128.68 73.05 128.47 74.49C128.27 75.92 127.77 77.33 127 78.71C126.22 80.09 125.12 81.38 123.68 82.57C121.69 84.23 119.53 85.26 117.21 85.67C114.89 86.08 112.57 85.8 110.24 84.84C107.91 83.89 105.73 82.19 103.71 79.76C101.68 77.32 100.41 74.87 99.9001 72.39C99.3901 69.92 99.5501 67.58 100.37 65.37C101.19 63.16 102.59 61.24 104.55 59.6C105.84 58.52 107.2 57.7 108.61 57.14C110.02 56.58 111.45 56.29 112.88 56.27C114.31 56.25 115.73 56.52 117.1 57.07C118.48 57.62 119.78 58.48 121.02 59.65L121.01 59.66Z" fill="white"/>
<path d="M139.94 34.8199L155.32 59.5199L150.18 62.7199L134.81 38.0199L139.95 34.8199H139.94Z" fill="white"/>
<path d="M179.58 46.92C178.32 47.5 177.09 47.8 175.89 47.81C174.7 47.82 173.61 47.52 172.64 46.91C171.67 46.3 170.88 45.34 170.28 44.03C169.77 42.93 169.55 41.91 169.61 40.98C169.67 40.05 169.94 39.19 170.43 38.41C170.92 37.63 171.55 36.92 172.34 36.28C173.12 35.64 173.98 35.05 174.92 34.5C176.02 33.85 176.89 33.31 177.55 32.88C178.21 32.45 178.64 32.05 178.86 31.69C179.08 31.33 179.09 30.94 178.9 30.52L178.86 30.44C178.48 29.62 177.94 29.11 177.22 28.9C176.5 28.69 175.67 28.8 174.74 29.23C173.75 29.69 173.06 30.26 172.68 30.97C172.29 31.67 172.16 32.4 172.27 33.14L166.99 35.06C166.7 33.74 166.72 32.46 167.07 31.23C167.42 30 168.09 28.87 169.07 27.84C170.05 26.81 171.33 25.93 172.92 25.2C174.02 24.69 175.14 24.34 176.27 24.13C177.4 23.92 178.48 23.91 179.52 24.09C180.56 24.27 181.5 24.68 182.34 25.32C183.19 25.96 183.88 26.87 184.42 28.05L190.57 41.42L185.36 43.82L184.1 41.07L183.94 41.14C183.91 41.91 183.73 42.65 183.41 43.36C183.09 44.07 182.62 44.73 181.99 45.34C181.36 45.95 180.56 46.48 179.58 46.93V46.92ZM179.41 42.4C180.22 42.03 180.86 41.54 181.33 40.93C181.8 40.32 182.09 39.66 182.19 38.95C182.29 38.24 182.18 37.53 181.86 36.84L180.89 34.74C180.77 34.93 180.58 35.14 180.33 35.37C180.07 35.6 179.78 35.83 179.44 36.08C179.1 36.33 178.76 36.56 178.42 36.78C178.08 37.01 177.76 37.21 177.48 37.39C176.88 37.78 176.38 38.19 176 38.62C175.61 39.05 175.37 39.5 175.26 39.97C175.15 40.44 175.22 40.93 175.46 41.45C175.8 42.2 176.34 42.64 177.07 42.78C177.8 42.92 178.58 42.8 179.42 42.41L179.41 42.4Z" fill="white"/>
<path d="M205.85 9.82005C204.99 10.0901 204.17 10.0401 203.38 9.66005C202.59 9.28005 202.07 8.69005 201.82 7.89005C201.57 7.09005 201.66 6.30005 202.09 5.53005C202.52 4.76005 203.17 4.25005 204.01 3.98005C204.87 3.71005 205.69 3.76005 206.48 4.14005C207.27 4.52005 207.79 5.11005 208.04 5.91005C208.29 6.71005 208.2 7.50005 207.77 8.26005C207.34 9.02005 206.7 9.54005 205.84 9.81005L205.85 9.82005ZM210.33 34.2301L203.79 13.4101L209.56 11.6001L216.1 32.42L210.33 34.2301Z" fill="white"/>
<path d="M236.32 26.72L232.99 5.16L238.69 4.28L239.28 8.08L239.53 8.04C239.78 6.71 240.38 5.59 241.31 4.7C242.25 3.81 243.44 3.25 244.9 3.02C246.38 2.79 247.69 2.96 248.85 3.54C250.01 4.12 250.85 5 251.39 6.2L251.61 6.17C251.86 4.87 252.5 3.75 253.54 2.83C254.58 1.91 255.89 1.32 257.47 1.08C259.48 0.770002 261.22 1.16 262.67 2.24C264.13 3.32 265.04 5.03 265.4 7.37L267.64 21.87L261.67 22.79L259.61 9.47C259.43 8.27 258.97 7.42 258.24 6.92C257.51 6.42 256.67 6.24 255.72 6.39C254.63 6.56 253.84 7.03 253.34 7.81C252.84 8.59 252.67 9.54 252.85 10.67L254.89 23.84L249.09 24.74L247.01 11.29C246.85 10.23 246.42 9.44 245.71 8.9C245.01 8.37 244.17 8.18 243.19 8.33C242.52 8.43 241.95 8.69 241.48 9.1C241 9.51 240.65 10.04 240.44 10.68C240.22 11.32 240.18 12.04 240.3 12.84L242.3 25.78L236.32 26.7V26.72Z" fill="white"/>
<path d="M317.03 30.43C316.27 30.34 315.56 30.2 314.91 30.01C314.26 29.82 313.73 29.6 313.32 29.38L315.19 25.05C315.87 25.35 316.49 25.54 317.06 25.62C317.63 25.7 318.14 25.62 318.59 25.4C319.04 25.17 319.44 24.73 319.78 24.08L320.24 23.2L315.03 0.0100098L321.35 0.74001L324.01 17.17L324.24 17.2L330.6 1.80001L336.96 2.53001L325.77 25.58C325.23 26.7 324.57 27.66 323.77 28.45C322.98 29.24 322.03 29.81 320.92 30.17C319.81 30.52 318.51 30.61 317.03 30.44V30.43Z" fill="white"/>
<path d="M362.06 30.7501C359.93 30.1701 358.21 29.2201 356.91 27.9001C355.61 26.5701 354.75 24.9801 354.35 23.1201C353.95 21.2601 354.04 19.2501 354.62 17.1001C355.21 14.9201 356.14 13.1301 357.42 11.7301C358.7 10.3301 360.24 9.38005 362.04 8.89005C363.83 8.40005 365.8 8.44005 367.93 9.02005C370.06 9.59005 371.78 10.5501 373.08 11.8701C374.38 13.1901 375.24 14.7901 375.64 16.6501C376.04 18.5101 375.95 20.5301 375.36 22.7001C374.78 24.8601 373.85 26.6401 372.56 28.0401C371.28 29.4401 369.74 30.3901 367.94 30.8801C366.14 31.3701 364.18 31.3301 362.05 30.7501H362.06ZM363.31 26.2301C364.28 26.4901 365.16 26.4301 365.96 26.0601C366.76 25.6901 367.45 25.0601 368.05 24.1901C368.64 23.3201 369.1 22.2701 369.44 21.0501C369.77 19.8201 369.9 18.6901 369.82 17.6401C369.74 16.5901 369.46 15.7001 368.96 14.9701C368.46 14.2401 367.73 13.7401 366.76 13.4801C365.78 13.2201 364.89 13.2701 364.07 13.6501C363.26 14.0301 362.55 14.6501 361.96 15.5201C361.37 16.3901 360.91 17.4401 360.57 18.6601C360.24 19.8901 360.11 21.0201 360.19 22.0701C360.26 23.1201 360.56 24.0101 361.07 24.7401C361.58 25.4701 362.33 25.9701 363.31 26.2301Z" fill="white"/>
<path d="M408.02 37.12L413.11 25.67L418.64 28.13L409.77 48.06L404.46 45.7L406.07 42.08L405.86 41.99C404.89 42.96 403.73 43.56 402.37 43.81C401.01 44.06 399.58 43.85 398.09 43.18C396.76 42.59 395.72 41.76 394.98 40.71C394.24 39.65 393.83 38.44 393.76 37.07C393.69 35.7 394 34.24 394.68 32.68L400.33 19.99L405.86 22.45L400.65 34.16C400.13 35.34 400.04 36.41 400.36 37.37C400.68 38.33 401.36 39.04 402.41 39.51C403.08 39.81 403.77 39.93 404.48 39.88C405.2 39.83 405.87 39.58 406.5 39.14C407.13 38.7 407.64 38.02 408.02 37.13V37.12Z" fill="white"/>
<path d="M428.24 58.2099L439.79 39.7L444.77 42.81L442.75 46.04L442.94 46.16C443.99 45.22 445.1 44.71 446.27 44.61C447.43 44.52 448.53 44.7899 449.57 45.4399C449.83 45.5999 450.09 45.7899 450.37 46.0099C450.65 46.2299 450.88 46.43 451.07 46.63L448.23 51.1899C448.03 50.9699 447.74 50.6899 447.35 50.3699C446.96 50.0499 446.59 49.78 446.23 49.56C445.48 49.09 444.7 48.83 443.91 48.79C443.12 48.75 442.37 48.91 441.67 49.27C440.97 49.64 440.38 50.2 439.91 50.95L433.38 61.4199L428.25 58.22L428.24 58.2099Z" fill="white"/>
<path d="M474.93 93.25L495.67 72.85L499.91 77.16L492.11 84.83L492.24 84.96C492.84 84.74 493.54 84.59 494.33 84.53C495.12 84.46 495.95 84.58 496.82 84.87C497.69 85.16 498.55 85.75 499.41 86.62C500.53 87.75 501.26 89.09 501.61 90.63C501.96 92.17 501.83 93.81 501.21 95.55C500.59 97.29 499.39 99.04 497.61 100.79C495.87 102.5 494.14 103.66 492.4 104.27C490.66 104.88 489.02 105.01 487.46 104.66C485.9 104.31 484.55 103.54 483.39 102.36C482.57 101.52 482.01 100.68 481.71 99.82C481.41 98.96 481.29 98.14 481.35 97.36C481.41 96.57 481.55 95.87 481.79 95.25L481.6 95.06L479.11 97.51L474.93 93.26V93.25ZM486.86 89.82C485.94 90.73 485.25 91.65 484.82 92.59C484.38 93.52 484.21 94.42 484.31 95.28C484.41 96.14 484.8 96.92 485.48 97.62C486.17 98.32 486.95 98.73 487.81 98.83C488.68 98.93 489.58 98.77 490.52 98.35C491.46 97.92 492.38 97.26 493.29 96.37C494.19 95.49 494.86 94.59 495.29 93.66C495.73 92.74 495.9 91.85 495.8 90.98C495.71 90.12 495.31 89.33 494.61 88.62C493.92 87.92 493.15 87.51 492.31 87.39C491.46 87.27 490.57 87.42 489.64 87.83C488.71 88.24 487.78 88.91 486.85 89.82H486.86Z" fill="white"/>
<path d="M502.74 124.07L520.27 111.08L523.76 115.79L520.7 118.06L520.83 118.24C522.16 117.75 523.38 117.68 524.49 118.02C525.61 118.36 526.53 119.02 527.26 120C527.44 120.24 527.62 120.52 527.8 120.82C527.98 121.12 528.12 121.4 528.22 121.65L523.91 124.85C523.81 124.57 523.64 124.21 523.39 123.77C523.14 123.33 522.9 122.94 522.65 122.6C522.12 121.88 521.49 121.36 520.77 121.03C520.05 120.7 519.29 120.57 518.51 120.66C517.72 120.74 516.97 121.05 516.26 121.58L506.34 128.93L502.74 124.07Z" fill="white"/>
<path d="M523.52 156.08C522.85 154.86 522.46 153.66 522.36 152.47C522.26 151.28 522.48 150.18 523.02 149.16C523.56 148.14 524.46 147.29 525.72 146.59C526.78 146 527.78 145.71 528.72 145.7C529.66 145.7 530.53 145.9 531.34 146.33C532.15 146.76 532.9 147.34 533.6 148.07C534.3 148.8 534.95 149.62 535.57 150.51C536.3 151.56 536.9 152.39 537.38 153.01C537.86 153.63 538.29 154.04 538.66 154.23C539.04 154.42 539.43 154.41 539.83 154.18L539.91 154.14C540.7 153.71 541.17 153.12 541.33 152.39C541.49 151.66 541.32 150.84 540.82 149.94C540.29 148.99 539.67 148.34 538.94 148.01C538.21 147.68 537.48 147.59 536.75 147.76L534.44 142.64C535.74 142.25 537.01 142.18 538.27 142.44C539.52 142.7 540.7 143.28 541.8 144.18C542.9 145.08 543.87 146.3 544.71 147.82C545.3 148.88 545.73 149.97 546.02 151.08C546.31 152.19 546.4 153.27 546.3 154.32C546.2 155.37 545.86 156.34 545.28 157.23C544.71 158.12 543.85 158.88 542.72 159.51L529.84 166.62L527.07 161.6L529.72 160.14L529.64 159.99C528.87 160.01 528.12 159.89 527.39 159.63C526.65 159.37 525.96 158.94 525.31 158.36C524.66 157.78 524.07 157.02 523.55 156.07L523.52 156.08ZM528.01 155.58C528.44 156.36 528.98 156.96 529.62 157.39C530.26 157.81 530.94 158.05 531.66 158.1C532.38 158.15 533.07 157.98 533.74 157.61L535.77 156.49C535.57 156.38 535.35 156.21 535.1 155.97C534.86 155.73 534.6 155.45 534.33 155.14C534.06 154.82 533.8 154.5 533.55 154.17C533.3 153.84 533.07 153.55 532.87 153.28C532.44 152.71 531.99 152.25 531.54 151.89C531.09 151.53 530.62 151.32 530.14 151.25C529.66 151.18 529.18 151.28 528.68 151.55C527.96 151.95 527.55 152.51 527.47 153.25C527.38 153.99 527.56 154.76 528.01 155.57V155.58Z" fill="white"/>
<path d="M552.47 186.92L540.63 191.27L538.54 185.59L559.02 178.06L561.01 183.47L557.4 184.8L557.49 185.04C558.85 185.06 560.07 185.47 561.16 186.28C562.25 187.09 563.07 188.25 563.63 189.77C564.15 191.19 564.3 192.55 564.06 193.83C563.83 195.12 563.24 196.26 562.31 197.27C561.37 198.28 560.11 199.08 558.52 199.66L545.48 204.45L543.39 198.77L555.42 194.35C556.68 193.9 557.54 193.22 558.01 192.31C558.48 191.4 558.5 190.38 558.08 189.24C557.8 188.48 557.39 187.86 556.84 187.4C556.3 186.94 555.65 186.66 554.91 186.57C554.16 186.48 553.35 186.59 552.47 186.9V186.92Z" fill="white"/>
<path d="M552.36 232.51C552.04 230.88 552.17 229.33 552.75 227.85C553.33 226.37 554.36 225.08 555.85 223.99C557.34 222.9 559.27 222.12 561.66 221.64C564.11 221.15 566.23 221.14 568.02 221.61C569.81 222.08 571.24 222.89 572.31 224.04C573.38 225.19 574.08 226.55 574.39 228.12C574.63 229.32 574.62 230.36 574.38 231.24C574.13 232.12 573.76 232.87 573.26 233.49C572.76 234.11 572.25 234.6 571.72 234.98L571.76 235.16L582.49 233.03L583.66 238.95L555.13 244.61L553.97 238.76L557.4 238.08L557.35 237.83C556.7 237.67 556.04 237.39 555.35 237C554.67 236.61 554.06 236.05 553.52 235.32C552.98 234.59 552.6 233.65 552.37 232.5L552.36 232.51ZM557.46 233.45C557.65 234.41 558.07 235.16 558.73 235.73C559.39 236.29 560.22 236.65 561.24 236.82C562.26 236.99 563.4 236.95 564.68 236.7C565.95 236.45 567.02 236.05 567.89 235.51C568.76 234.97 569.38 234.32 569.76 233.55C570.14 232.78 570.23 231.92 570.04 230.96C569.85 229.98 569.42 229.21 568.76 228.65C568.1 228.09 567.26 227.73 566.26 227.57C565.25 227.41 564.13 227.46 562.9 227.7C561.65 227.95 560.59 228.34 559.71 228.88C558.83 229.42 558.18 230.07 557.78 230.84C557.38 231.61 557.27 232.48 557.47 233.46L557.46 233.45Z" fill="white"/>
<path d="M570.64 298.09L558.05 297.4L558.38 291.36L580.17 292.56L579.85 298.32L576.01 298.11V298.37C577.24 298.92 578.2 299.79 578.88 300.96C579.56 302.13 579.86 303.53 579.77 305.15C579.69 306.66 579.28 307.96 578.56 309.05C577.84 310.14 576.85 310.96 575.59 311.52C574.33 312.08 572.86 312.31 571.16 312.22L557.29 311.46L557.62 305.42L570.41 306.12C571.74 306.2 572.8 305.92 573.59 305.27C574.38 304.62 574.81 303.69 574.87 302.48C574.91 301.67 574.78 300.94 574.46 300.3C574.14 299.66 573.66 299.15 573.01 298.77C572.36 298.39 571.57 298.17 570.63 298.11L570.64 298.09Z" fill="white"/>
<path d="M552.81 338.21C553.1 336.85 553.59 335.68 554.29 334.72C554.99 333.76 555.87 333.06 556.95 332.64C558.02 332.22 559.26 332.16 560.67 332.45C561.86 332.7 562.81 333.12 563.52 333.73C564.24 334.33 564.76 335.06 565.09 335.92C565.42 336.77 565.62 337.71 565.67 338.72C565.72 339.73 565.68 340.78 565.57 341.85C565.44 343.12 565.35 344.15 565.31 344.93C565.27 345.71 565.32 346.3 565.48 346.69C565.64 347.08 565.95 347.32 566.4 347.42L566.48 347.44C567.36 347.62 568.1 347.49 568.7 347.04C569.3 346.59 569.7 345.86 569.91 344.85C570.13 343.78 570.08 342.89 569.74 342.16C569.4 341.43 568.91 340.89 568.24 340.54L569.83 335.16C571.07 335.71 572.08 336.49 572.86 337.51C573.64 338.53 574.15 339.73 574.4 341.13C574.64 342.53 574.59 344.08 574.23 345.79C573.98 346.98 573.61 348.08 573.1 349.12C572.59 350.15 571.96 351.03 571.2 351.75C570.44 352.48 569.55 352.99 568.53 353.29C567.51 353.59 566.37 353.61 565.1 353.34L550.7 350.33L551.87 344.71L554.83 345.33L554.87 345.16C554.27 344.68 553.78 344.1 553.4 343.42C553.02 342.74 552.77 341.97 552.65 341.1C552.54 340.23 552.59 339.27 552.81 338.22V338.21ZM556.54 340.76C556.36 341.63 556.37 342.44 556.58 343.18C556.79 343.92 557.15 344.54 557.66 345.05C558.17 345.55 558.81 345.88 559.56 346.04L561.83 346.51C561.75 346.3 561.69 346.02 561.66 345.68C561.63 345.34 561.62 344.96 561.62 344.55C561.62 344.13 561.64 343.72 561.66 343.31C561.68 342.9 561.71 342.53 561.73 342.19C561.77 341.47 561.73 340.83 561.62 340.27C561.51 339.7 561.29 339.24 560.98 338.87C560.66 338.5 560.23 338.26 559.67 338.15C558.86 337.98 558.19 338.15 557.64 338.65C557.1 339.15 556.73 339.86 556.54 340.76Z" fill="white"/>
<path d="M545.26 370.3L565.52 378.39L563.38 383.75L559.8 382.32L559.71 382.56C560.73 383.46 561.38 384.53 561.68 385.79C561.97 387.05 561.85 388.36 561.3 389.74C560.75 391.13 559.93 392.17 558.85 392.87C557.77 393.57 556.58 393.85 555.27 393.7L555.19 393.91C556.19 394.79 556.82 395.91 557.08 397.27C557.34 398.64 557.18 400.06 556.59 401.55C555.84 403.44 554.62 404.74 552.95 405.44C551.28 406.14 549.34 406.06 547.14 405.18L533.51 399.74L535.75 394.13L548.27 399.13C549.4 399.58 550.36 399.62 551.16 399.25C551.96 398.88 552.54 398.24 552.9 397.34C553.31 396.32 553.3 395.39 552.88 394.56C552.46 393.73 551.72 393.1 550.67 392.68L538.3 387.74L540.48 382.29L553.12 387.34C554.11 387.74 555.02 387.77 555.83 387.44C556.65 387.11 557.24 386.48 557.61 385.56C557.86 384.94 557.93 384.31 557.81 383.69C557.7 383.07 557.42 382.5 556.98 381.99C556.54 381.48 555.94 381.07 555.19 380.77L543.03 375.91L545.28 370.29L545.26 370.3Z" fill="white"/>
<path d="M518.04 426.28C519.22 424.37 520.63 422.97 522.25 422.08C523.87 421.19 525.63 420.82 527.52 420.96C529.41 421.1 531.33 421.78 533.29 422.99C535.2 424.17 536.64 425.58 537.62 427.21C538.6 428.84 539.08 430.58 539.05 432.43C539.02 434.28 538.44 436.11 537.31 437.93C536.55 439.15 535.65 440.17 534.6 440.99C533.55 441.81 532.39 442.37 531.12 442.68C529.85 442.99 528.49 443 527.03 442.71C525.58 442.42 524.06 441.79 522.48 440.81L521.07 439.93L530.77 424.27L533.96 426.24L527.26 437.06C528 437.52 528.76 437.76 529.53 437.8C530.3 437.83 531.03 437.67 531.7 437.3C532.37 436.93 532.95 436.38 533.41 435.63C533.89 434.85 534.14 434.05 534.16 433.23C534.17 432.41 533.98 431.64 533.59 430.93C533.2 430.22 532.64 429.63 531.91 429.17L528.88 427.29C527.96 426.72 527.06 426.4 526.18 426.33C525.3 426.26 524.48 426.42 523.73 426.83C522.98 427.23 522.34 427.87 521.8 428.73C521.45 429.3 521.2 429.87 521.07 430.45C520.94 431.02 520.93 431.58 521.04 432.12C521.15 432.66 521.39 433.16 521.75 433.63L518.49 438.19C517.5 437.24 516.81 436.13 516.42 434.86C516.03 433.59 515.96 432.22 516.22 430.76C516.48 429.3 517.08 427.8 518.02 426.27L518.04 426.28Z" fill="white"/>
<path d="M476.88 477.22C478.47 475.69 480.17 474.7 481.97 474.26C483.78 473.82 485.58 473.91 487.39 474.52C489.19 475.13 490.87 476.24 492.42 477.85C493.99 479.47 495.04 481.19 495.59 483.01C496.14 484.83 496.16 486.64 495.66 488.43C495.16 490.22 494.12 491.89 492.53 493.42C490.94 494.95 489.24 495.94 487.44 496.38C485.63 496.82 483.83 496.73 482.02 496.12C480.22 495.51 478.54 494.39 476.97 492.77C475.42 491.16 474.37 489.45 473.82 487.63C473.27 485.81 473.25 484 473.75 482.21C474.25 480.42 475.29 478.75 476.88 477.22ZM480.12 480.61C479.4 481.31 478.99 482.1 478.91 482.98C478.82 483.86 479 484.78 479.45 485.73C479.89 486.69 480.55 487.62 481.44 488.53C482.32 489.44 483.23 490.14 484.17 490.61C485.11 491.08 486.02 491.3 486.91 491.24C487.8 491.18 488.6 490.81 489.32 490.12C490.05 489.42 490.46 488.62 490.55 487.73C490.64 486.84 490.47 485.91 490.03 484.96C489.59 484.01 488.93 483.07 488.04 482.16C487.16 481.25 486.25 480.55 485.31 480.08C484.37 479.6 483.45 479.4 482.56 479.46C481.67 479.52 480.86 479.91 480.13 480.61H480.12Z" fill="white"/>
<path d="M456.27 511.56L448.99 501.26L453.93 497.77L466.52 515.59L461.81 518.92L459.59 515.78L459.38 515.93C459.72 517.25 459.64 518.53 459.14 519.8C458.64 521.06 457.73 522.16 456.41 523.09C455.17 523.96 453.9 524.46 452.6 524.56C451.3 524.66 450.04 524.4 448.82 523.76C447.6 523.12 446.5 522.11 445.53 520.72L437.52 509.37L442.46 505.88L449.85 516.35C450.61 517.45 451.49 518.1 452.49 518.32C453.49 518.54 454.48 518.29 455.47 517.6C456.14 517.13 456.62 516.57 456.92 515.93C457.22 515.29 457.33 514.59 457.22 513.85C457.12 513.1 456.8 512.35 456.27 511.58V511.56Z" fill="white"/>
<path d="M390.33 533.1C391.63 532.6 392.88 532.39 394.07 532.45C395.26 532.52 396.32 532.89 397.25 533.56C398.18 534.23 398.91 535.24 399.42 536.58C399.85 537.71 400.01 538.74 399.89 539.67C399.77 540.6 399.44 541.43 398.9 542.18C398.36 542.92 397.68 543.59 396.86 544.18C396.04 544.77 395.14 545.3 394.17 545.79C393.03 546.37 392.12 546.85 391.44 547.24C390.76 547.63 390.29 548 390.05 548.34C389.81 548.69 389.77 549.08 389.94 549.51L389.97 549.59C390.29 550.43 390.8 550.98 391.51 551.24C392.21 551.5 393.05 551.44 394.01 551.07C395.03 550.68 395.75 550.15 396.18 549.47C396.61 548.79 396.79 548.08 396.73 547.33L402.12 545.75C402.33 547.09 402.22 548.36 401.79 549.57C401.36 550.78 400.62 551.86 399.57 552.82C398.52 553.78 397.19 554.58 395.56 555.2C394.43 555.63 393.29 555.92 392.15 556.05C391.01 556.18 389.93 556.13 388.9 555.88C387.87 555.63 386.97 555.16 386.16 554.47C385.36 553.78 384.72 552.83 384.26 551.62L379 537.88L384.36 535.83L385.44 538.66L385.6 538.6C385.68 537.84 385.91 537.11 386.27 536.42C386.63 535.73 387.15 535.1 387.81 534.54C388.48 533.98 389.31 533.5 390.32 533.12L390.33 533.1ZM390.21 537.62C389.38 537.94 388.71 538.38 388.2 538.96C387.69 539.54 387.36 540.17 387.22 540.88C387.07 541.59 387.14 542.3 387.41 543.01L388.24 545.17C388.37 544.99 388.57 544.79 388.84 544.58C389.11 544.37 389.42 544.16 389.77 543.93C390.12 543.7 390.48 543.5 390.83 543.29C391.18 543.08 391.51 542.9 391.81 542.74C392.44 542.39 392.96 542.01 393.37 541.61C393.78 541.21 394.06 540.78 394.2 540.31C394.34 539.85 394.3 539.35 394.1 538.82C393.81 538.05 393.3 537.57 392.58 537.39C391.86 537.21 391.07 537.27 390.21 537.61V537.62Z" fill="white"/>
<path d="M330.01 549.05C330.94 548.92 331.78 549.14 332.53 549.71C333.28 550.28 333.73 551.03 333.86 551.96C333.99 552.88 333.77 553.71 333.2 554.46C332.63 555.21 331.88 555.65 330.95 555.78C330.05 555.91 329.22 555.69 328.45 555.13C327.68 554.57 327.23 553.83 327.11 552.91C327.02 552.29 327.11 551.7 327.34 551.15C327.58 550.59 327.94 550.13 328.4 549.75C328.86 549.37 329.4 549.14 330.01 549.06V549.05Z" fill="white"/>
<path d="M290.03 572.8C290.16 573.94 290.66 574.83 291.54 575.45C292.42 576.07 293.59 576.37 295.06 576.34C296.06 576.32 296.91 576.17 297.6 575.88C298.29 575.59 298.81 575.19 299.17 574.7C299.53 574.21 299.7 573.64 299.69 573.02C299.7 572.5 299.58 572.05 299.33 571.66C299.08 571.28 298.74 570.95 298.31 570.68C297.88 570.41 297.38 570.17 296.82 569.98C296.26 569.78 295.66 569.62 295.02 569.49L292.4 568.91C291.13 568.65 289.96 568.29 288.89 567.83C287.82 567.37 286.89 566.81 286.11 566.13C285.32 565.45 284.71 564.65 284.26 563.72C283.81 562.79 283.58 561.72 283.55 560.51C283.53 558.73 283.96 557.18 284.83 555.87C285.7 554.55 286.97 553.52 288.64 552.78C290.31 552.04 292.33 551.65 294.69 551.61C297.04 551.57 299.09 551.9 300.84 552.59C302.59 553.28 303.96 554.33 304.95 555.73C305.94 557.13 306.48 558.88 306.56 560.97L300.61 561.07C300.53 560.1 300.23 559.29 299.73 558.65C299.22 558.01 298.55 557.53 297.7 557.22C296.86 556.91 295.91 556.76 294.84 556.78C293.8 556.8 292.89 556.96 292.13 557.28C291.37 557.6 290.77 558.03 290.35 558.57C289.93 559.11 289.73 559.74 289.74 560.44C289.75 561.09 289.95 561.64 290.34 562.08C290.73 562.52 291.3 562.89 292.03 563.19C292.77 563.49 293.67 563.76 294.74 564L297.92 564.74C300.38 565.3 302.33 566.2 303.77 567.44C305.21 568.69 305.94 570.38 305.97 572.53C306.01 574.29 305.56 575.84 304.63 577.17C303.7 578.5 302.41 579.55 300.75 580.32C299.09 581.09 297.21 581.49 295.09 581.52C292.93 581.55 291.04 581.22 289.41 580.5C287.78 579.79 286.51 578.78 285.59 577.48C284.67 576.18 284.18 574.66 284.12 572.93L290.01 572.83L290.03 572.8Z" fill="white"/>
<path d="M248.83 570.54L249.42 566.03L262.45 567.74L261.86 572.25L248.83 570.54ZM258.22 577.05L252.22 576.26L254.87 556.09C254.94 555.54 254.91 555.09 254.79 554.77C254.67 554.45 254.45 554.2 254.16 554.04C253.87 553.88 253.52 553.77 253.12 553.72C252.84 553.68 252.55 553.67 252.26 553.69C251.97 553.7 251.75 553.72 251.6 553.72L251.24 549.13C251.55 549.08 251.99 549.02 252.55 548.97C253.11 548.91 253.78 548.92 254.57 549C256.02 549.13 257.26 549.49 258.29 550.08C259.32 550.66 260.07 551.46 260.55 552.47C261.03 553.48 261.17 554.69 260.97 556.11L258.21 577.07L258.22 577.05Z" fill="white"/>
<path d="M222.66 542.19C224.79 542.77 226.5 543.73 227.8 545.06C229.1 546.39 229.95 547.99 230.34 549.85C230.73 551.71 230.64 553.72 230.05 555.87C229.46 558.04 228.51 559.83 227.23 561.23C225.94 562.63 224.4 563.57 222.6 564.06C220.8 564.54 218.84 564.5 216.71 563.91C214.58 563.33 212.87 562.37 211.57 561.04C210.27 559.71 209.42 558.11 209.03 556.25C208.64 554.39 208.74 552.37 209.33 550.2C209.92 548.04 210.86 546.27 212.15 544.87C213.44 543.47 214.98 542.53 216.77 542.04C218.57 541.56 220.53 541.6 222.66 542.19ZM221.39 546.7C220.42 546.43 219.54 546.49 218.74 546.86C217.94 547.23 217.24 547.86 216.65 548.72C216.05 549.59 215.59 550.63 215.25 551.86C214.91 553.08 214.78 554.22 214.85 555.27C214.92 556.32 215.2 557.21 215.7 557.95C216.2 558.68 216.93 559.18 217.9 559.45C218.88 559.72 219.77 559.66 220.59 559.29C221.41 558.91 222.11 558.29 222.71 557.42C223.31 556.55 223.77 555.51 224.11 554.28C224.45 553.06 224.58 551.92 224.51 550.87C224.44 549.82 224.15 548.93 223.64 548.19C223.13 547.46 222.39 546.96 221.41 546.69L221.39 546.7Z" fill="white"/>
<path d="M193.26 532.77L184.63 552.81L179.24 550.49L180.74 546.99L180.53 546.9C179.63 547.99 178.61 548.66 177.47 548.93C176.33 549.2 175.2 549.09 174.08 548.61C173.8 548.49 173.51 548.34 173.2 548.17C172.89 548 172.63 547.83 172.41 547.66L174.53 542.73C174.76 542.92 175.09 543.15 175.52 543.41C175.95 543.67 176.36 543.88 176.75 544.05C177.57 544.4 178.37 544.54 179.16 544.46C179.95 544.38 180.67 544.11 181.31 543.64C181.95 543.17 182.44 542.53 182.8 541.71L187.68 530.37L193.24 532.76L193.26 532.77Z" fill="white"/>
<path d="M156.39 513.81C158.31 514.96 159.73 516.35 160.65 517.96C161.57 519.57 161.96 521.33 161.85 523.22C161.74 525.11 161.08 527.04 159.9 529.01C158.75 530.93 157.36 532.4 155.74 533.41C154.12 534.41 152.39 534.92 150.54 534.91C148.69 534.91 146.85 534.35 145.02 533.25C143.79 532.51 142.75 531.62 141.92 530.59C141.09 529.56 140.51 528.4 140.18 527.14C139.85 525.87 139.82 524.51 140.09 523.05C140.36 521.59 140.97 520.07 141.92 518.48L142.77 517.05L158.57 526.52L156.64 529.74L145.72 523.19C145.27 523.94 145.04 524.7 145.02 525.47C145 526.24 145.18 526.96 145.55 527.64C145.93 528.31 146.49 528.88 147.25 529.33C148.04 529.8 148.84 530.04 149.66 530.04C150.48 530.04 151.24 529.84 151.95 529.44C152.66 529.04 153.23 528.47 153.68 527.74L155.51 524.68C156.06 523.75 156.37 522.85 156.43 521.97C156.49 521.09 156.31 520.28 155.9 519.53C155.49 518.78 154.84 518.15 153.98 517.63C153.4 517.28 152.83 517.05 152.25 516.92C151.67 516.8 151.12 516.79 150.58 516.92C150.04 517.04 149.55 517.28 149.08 517.65L144.47 514.46C145.41 513.45 146.51 512.75 147.77 512.34C149.03 511.93 150.4 511.85 151.87 512.08C153.34 512.31 154.84 512.89 156.38 513.82L156.39 513.81Z" fill="white"/>
<path d="M106.1 474.73C107.27 475.91 108.02 477.27 108.35 478.83C108.68 480.38 108.53 482.03 107.89 483.76C107.25 485.49 106.07 487.21 104.34 488.93C102.56 490.69 100.8 491.87 99.0602 492.47C97.3202 493.07 95.6702 493.18 94.1402 492.81C92.6102 492.44 91.2802 491.69 90.1502 490.55C89.2902 489.68 88.7202 488.81 88.4302 487.94C88.1502 487.07 88.0402 486.24 88.1202 485.45C88.2002 484.66 88.3502 483.96 88.5802 483.36L88.4502 483.23L80.6802 490.93L76.4302 486.64L97.1002 466.17L101.3 470.41L98.8202 472.87L99.0002 473.05C99.6302 472.83 100.34 472.69 101.12 472.64C101.9 472.59 102.72 472.72 103.57 473.03C104.42 473.34 105.26 473.91 106.09 474.74L106.1 474.73ZM101.33 476.76C100.64 476.07 99.8702 475.67 99.0202 475.56C98.1702 475.45 97.2602 475.61 96.3202 476.03C95.3802 476.45 94.4402 477.12 93.5202 478.03C92.6002 478.94 91.9302 479.86 91.5002 480.79C91.0702 481.72 90.9202 482.61 91.0302 483.46C91.1402 484.31 91.5402 485.08 92.2202 485.78C92.9202 486.49 93.7002 486.89 94.5602 487C95.4202 487.11 96.3202 486.94 97.2402 486.52C98.1702 486.1 99.0802 485.44 99.9702 484.55C100.87 483.66 101.54 482.74 101.98 481.81C102.42 480.87 102.6 479.98 102.51 479.11C102.42 478.24 102.03 477.46 101.33 476.75V476.76Z" fill="white"/>
<path d="M78.0399 441.83C79.3299 443.62 80.0699 445.44 80.2499 447.29C80.4299 449.14 80.0899 450.92 79.2299 452.61C78.3699 454.31 77.0399 455.81 75.2299 457.12C73.3999 458.44 71.5499 459.24 69.6699 459.53C67.7899 459.82 65.9999 459.58 64.2899 458.84C62.5899 458.09 61.0899 456.83 59.7899 455.04C58.4899 453.25 57.7599 451.43 57.5799 449.58C57.3999 447.73 57.7399 445.95 58.5999 444.26C59.4599 442.57 60.7999 441.05 62.6299 439.73C64.4399 438.42 66.2899 437.62 68.1699 437.34C70.0499 437.05 71.8399 437.29 73.5499 438.03C75.2599 438.78 76.7499 440.04 78.0499 441.83H78.0399ZM74.2299 444.56C73.6399 443.75 72.9199 443.24 72.0599 443.03C71.1999 442.82 70.2699 442.87 69.2599 443.17C68.2499 443.47 67.2299 444 66.2099 444.74C65.1799 445.48 64.3699 446.29 63.7599 447.15C63.1499 448.01 62.8199 448.89 62.7499 449.77C62.6799 450.65 62.9299 451.5 63.5199 452.31C64.1099 453.13 64.8499 453.65 65.7199 453.87C66.5899 454.09 67.5299 454.04 68.5399 453.74C69.5499 453.44 70.5699 452.91 71.5899 452.17C72.6199 451.43 73.4299 450.62 74.0399 449.76C74.6399 448.9 74.9799 448.02 75.0399 447.13C75.0999 446.24 74.8399 445.38 74.2399 444.56H74.2299Z" fill="white"/>
<path d="M60.7699 416.49L41.1399 426.01L38.6199 420.82L42.0799 419.14L41.9699 418.91C40.6199 419.06 39.3799 418.82 38.2599 418.19C37.1299 417.56 36.2499 416.58 35.5999 415.25C34.9499 413.9 34.7299 412.6 34.9399 411.33C35.1499 410.06 35.7499 408.99 36.7399 408.12L36.6399 407.91C35.3199 408.06 34.0699 407.77 32.8799 407.04C31.6899 406.31 30.7499 405.23 30.0499 403.79C29.1599 401.96 29.0199 400.19 29.6299 398.48C30.2399 396.77 31.6099 395.4 33.7399 394.37L46.9399 387.97L49.5699 393.4L37.4399 399.28C36.3499 399.81 35.6699 400.49 35.4099 401.34C35.1499 402.18 35.2199 403.04 35.6499 403.91C36.1299 404.9 36.8199 405.52 37.7099 405.77C38.5999 406.02 39.5599 405.9 40.5899 405.4L52.5799 399.59L55.1399 404.87L42.8999 410.81C41.9399 411.28 41.2999 411.92 40.9999 412.75C40.6999 413.58 40.7599 414.44 41.1899 415.33C41.4799 415.94 41.8999 416.41 42.4299 416.74C42.9699 417.07 43.5699 417.25 44.2499 417.27C44.9299 417.29 45.6299 417.12 46.3499 416.77L58.1299 411.06L60.7699 416.5V416.49Z" fill="white"/>
<path d="M38.7498 362.22C39.1298 363.56 39.2398 364.82 39.0698 366C38.8998 367.18 38.4398 368.21 37.6898 369.07C36.9398 369.94 35.8698 370.57 34.4898 370.97C33.3198 371.3 32.2798 371.37 31.3698 371.17C30.4598 370.97 29.6498 370.57 28.9598 369.97C28.2698 369.37 27.6598 368.63 27.1498 367.76C26.6398 366.89 26.1798 365.95 25.7798 364.94C25.3098 363.76 24.8998 362.81 24.5798 362.09C24.2498 361.38 23.9298 360.88 23.5998 360.61C23.2798 360.34 22.8898 360.27 22.4398 360.39L22.3598 360.41C21.4898 360.66 20.8998 361.12 20.5798 361.8C20.2598 362.48 20.2398 363.31 20.5298 364.3C20.8298 365.35 21.2998 366.12 21.9298 366.6C22.5698 367.09 23.2598 367.33 24.0098 367.34L25.1098 372.85C23.7598 372.94 22.4998 372.72 21.3398 372.18C20.1798 371.64 19.1598 370.81 18.2998 369.69C17.4298 368.56 16.7598 367.16 16.2798 365.49C15.9498 364.32 15.7698 363.17 15.7298 362.02C15.6998 360.87 15.8498 359.8 16.1898 358.8C16.5298 357.8 17.0698 356.94 17.8298 356.2C18.5898 355.46 19.5898 354.91 20.8398 354.56L34.9898 350.53L36.5598 356.05L33.6498 356.88L33.6998 357.04C34.4498 357.19 35.1598 357.48 35.8098 357.9C36.4698 358.32 37.0498 358.89 37.5498 359.6C38.0498 360.31 38.4498 361.19 38.7498 362.23V362.22ZM34.2598 361.7C34.0198 360.84 33.6298 360.14 33.0998 359.58C32.5698 359.02 31.9598 358.64 31.2698 358.43C30.5798 358.22 29.8698 358.22 29.1298 358.43L26.8998 359.06C27.0698 359.21 27.2498 359.43 27.4298 359.71C27.6198 360 27.7998 360.33 27.9898 360.69C28.1798 361.06 28.3598 361.43 28.5298 361.81C28.6998 362.19 28.8498 362.53 28.9898 362.83C29.2798 363.48 29.6098 364.04 29.9798 364.48C30.3398 364.93 30.7498 365.24 31.1998 365.42C31.6498 365.6 32.1498 365.61 32.6898 365.45C33.4798 365.22 33.9998 364.76 34.2498 364.07C34.4998 363.37 34.4998 362.58 34.2498 361.69L34.2598 361.7Z" fill="white"/>
<path d="M6.10008 330.61C6.24008 331.5 6.06008 332.31 5.56008 333.03C5.07008 333.75 4.40008 334.18 3.57008 334.3C2.74008 334.42 1.97008 334.22 1.28008 333.67C0.590078 333.12 0.180078 332.41 0.0400781 331.53C-0.0999219 330.64 0.0800781 329.83 0.580078 329.11C1.07008 328.39 1.74008 327.96 2.57008 327.84C3.40008 327.71 4.17008 327.92 4.86008 328.46C5.55008 329 5.96008 329.72 6.10008 330.61ZM30.9101 329.9L9.34008 333.19L8.43008 327.21L30.0001 323.92L30.9101 329.9Z" fill="white"/>
<path d="M14.9601 297.12L27.5701 296.83L27.7101 302.88L5.90009 303.38L5.77009 297.61L9.62009 297.52V297.26C8.33009 296.81 7.31009 296.02 6.54009 294.9C5.77009 293.78 5.37009 292.41 5.33009 290.79C5.29009 289.28 5.60009 287.95 6.23009 286.8C6.87009 285.66 7.79009 284.76 9.00009 284.11C10.2101 283.46 11.6601 283.11 13.3601 283.07L27.2501 282.75L27.3901 288.8L14.5801 289.1C13.2501 289.12 12.2101 289.49 11.4701 290.19C10.7301 290.9 10.3801 291.86 10.4101 293.07C10.4301 293.88 10.6201 294.6 10.9901 295.21C11.3501 295.82 11.8701 296.29 12.5501 296.62C13.2301 296.95 14.0301 297.11 14.9701 297.1L14.9601 297.12Z" fill="white"/>
<path d="M21.0302 227.63L33.3202 230.47L31.9602 236.37L10.7002 231.46L12.0002 225.84L15.7502 226.71L15.8102 226.46C14.6802 225.7 13.8802 224.69 13.4202 223.41C12.9502 222.14 12.9002 220.71 13.2602 219.13C13.6002 217.65 14.2202 216.44 15.1202 215.49C16.0202 214.54 17.1402 213.9 18.4702 213.57C19.8102 213.24 21.3002 213.26 22.9502 213.64L36.4902 216.77L35.1302 222.67L22.6502 219.79C21.3502 219.48 20.2602 219.58 19.3702 220.08C18.4802 220.58 17.9002 221.43 17.6302 222.61C17.4502 223.4 17.4602 224.14 17.6602 224.82C17.8602 225.5 18.2502 226.09 18.8202 226.57C19.3902 227.06 20.1302 227.41 21.0502 227.63H21.0302Z" fill="white"/>
<path d="M46.8502 187.83C46.0302 189.88 44.8802 191.47 43.4102 192.61C41.9402 193.75 40.2502 194.41 38.3602 194.58C36.4702 194.76 34.4802 194.43 32.4102 193.6C30.3202 192.76 28.6502 191.62 27.4102 190.18C26.1702 188.74 25.4102 187.1 25.1302 185.26C24.8502 183.42 25.1302 181.47 25.9502 179.43C26.7702 177.38 27.9202 175.79 29.3902 174.65C30.8602 173.51 32.5502 172.85 34.4402 172.68C36.3302 172.5 38.3302 172.83 40.4202 173.67C42.4902 174.5 44.1502 175.64 45.4002 177.08C46.6502 178.52 47.4002 180.16 47.6802 182C47.9602 183.84 47.6802 185.79 46.8602 187.83H46.8502ZM42.5102 186.06C42.8902 185.13 42.9302 184.24 42.6502 183.41C42.3702 182.57 41.8302 181.81 41.0402 181.12C40.2502 180.43 39.2602 179.85 38.0802 179.37C36.9002 178.9 35.7902 178.63 34.7402 178.58C33.6902 178.53 32.7702 178.71 31.9802 179.12C31.1902 179.53 30.6102 180.2 30.2402 181.13C29.8602 182.07 29.8102 182.97 30.0902 183.82C30.3702 184.67 30.9102 185.44 31.7002 186.14C32.4902 186.83 33.4802 187.41 34.6602 187.89C35.8402 188.36 36.9502 188.63 38.0002 188.68C39.0502 188.73 39.9702 188.54 40.7602 188.12C41.5502 187.7 42.1302 187.01 42.5102 186.07V186.06Z" fill="white"/>
<path d="M61.1702 156.53L39.4702 150.16L42.6802 144.94L56.9402 149.74L57.0402 149.57L46.4002 138.89L49.5502 133.77L63.8402 138.35L63.9402 138.19L53.2702 127.73L56.4702 122.53L71.9502 139L68.6002 144.46L54.9502 140.47L54.8102 140.7L64.5302 151.08L61.1802 156.53H61.1702Z" fill="white"/>
<path d="M69.55 94.51L84.77 108.06L81.42 112.04L65.48 99.35L69.55 94.52V94.51ZM90.05 115.91C89.45 116.63 88.67 117.03 87.73 117.11C86.79 117.19 85.96 116.93 85.25 116.32C84.53 115.73 84.14 114.96 84.07 114.02C84 113.08 84.26 112.25 84.87 111.53C85.45 110.84 86.21 110.45 87.16 110.36C88.11 110.27 88.94 110.51 89.65 111.1C90.12 111.51 90.45 112 90.64 112.58C90.83 113.16 90.88 113.74 90.78 114.33C90.69 114.92 90.44 115.45 90.05 115.91Z" fill="white"/>
<circle cx="294" cy="291" r="196.606" stroke="white" stroke-width="0.78711"/>
</g>
<defs>
<clipPath id="clip0_426_756">
<rect width="583.66" height="581.49" fill="white"/>
</clipPath>
</defs>
</svg>
