<svg width="24" height="24" viewBox="0 0 24 24" fill="none" xmlns="http://www.w3.org/2000/svg">
<path d="M12.0007 2.18313C6.24341 2.18313 1.57617 6.85122 1.57617 12.6077C1.57617 18.365 6.24341 23.0314 12.0007 23.0314C17.7581 23.0314 22.4245 18.365 22.4245 12.6077C22.4245 6.85122 17.7576 2.18313 12.0007 2.18313ZM17.2518 10.5058C17.2573 10.6185 17.2594 10.7315 17.2594 10.8458C17.2594 14.3175 14.6169 18.3201 9.78502 18.3201C8.30166 18.3201 6.92032 17.8854 5.75785 17.1403C5.96359 17.1644 6.17229 17.1767 6.38438 17.1767C7.61544 17.1767 8.74827 16.7568 9.64701 16.0524C8.49766 16.0308 7.52781 15.2709 7.19337 14.2274C7.35339 14.2587 7.51807 14.2744 7.6874 14.2744C7.92701 14.2744 8.159 14.243 8.37955 14.1825C7.17729 13.9412 6.27178 12.8786 6.27178 11.6069C6.27178 11.5955 6.27178 11.5845 6.2722 11.5731C6.62611 11.7699 7.03124 11.888 7.46219 11.902C6.75692 11.43 6.29337 10.6269 6.29337 9.71506C6.29337 9.23373 6.42291 8.78204 6.64897 8.39427C7.94479 9.98346 9.88069 11.0295 12.0642 11.1387C12.0194 10.947 11.9961 10.7459 11.9961 10.5401C11.9961 9.0898 13.1721 7.91336 14.6233 7.91336C15.3789 7.91336 16.0613 8.23255 16.5406 8.74267C17.1392 8.62541 17.7013 8.40612 18.2089 8.10513C18.0121 8.71896 17.5959 9.23373 17.0532 9.55843C17.5853 9.49493 18.0917 9.35354 18.5624 9.14483C18.211 9.67273 17.7653 10.1354 17.2518 10.5058Z" fill="black"/>
</svg>
