<svg width="24" height="24" viewBox="0 0 24 24" fill="none" xmlns="http://www.w3.org/2000/svg">
<path d="M19.9496 2H3.95663C2.82425 2 1.90625 2.918 1.90625 4.05038V20.0434C1.90625 21.1757 2.82425 22.0937 3.95663 22.0937H19.9496C21.082 22.0937 22 21.1757 22 20.0434V4.05038C22 2.918 21.082 2 19.9496 2ZM8.1372 18.268H5.43926V9.58854H8.1372V18.268ZM6.77045 8.52358C5.91848 8.52358 5.36828 7.92015 5.36828 7.17463C5.36828 6.41144 5.93628 5.82564 6.80597 5.82564C7.67566 5.82564 8.20818 6.4114 8.2259 7.17463C8.2259 7.92015 7.67566 8.52358 6.77045 8.52358ZM18.538 18.268H15.8401V13.4579C15.8401 12.3397 15.4496 11.5765 14.4734 11.5765C13.7279 11.5765 13.2841 12.0912 13.0889 12.5882C13.0179 12.7657 13.0001 13.0142 13.0001 13.2627V18.268H10.3022V12.3574C10.3022 11.2747 10.2668 10.3695 10.2313 9.58854H12.5742L12.6984 10.7956H12.7517C13.1067 10.2276 13.9764 9.39335 15.4318 9.39335C17.2067 9.39335 18.538 10.5826 18.538 13.1385V18.268Z" fill="black"/>
</svg>
