<svg width="50" height="40" viewBox="0 0 50 40" fill="none" xmlns="http://www.w3.org/2000/svg">
<path d="M31.8972 14.9991C29.5185 13.9364 24.7082 0.49241 23.0695 2.13969C21.4308 3.78698 18.9992 14.9991 17.4663 14.9991C15.9334 14.9991 1.23803 11.0138 2.03094 12.3954C2.82385 13.777 14.4003 22.7042 14.3475 24.7766C14.2946 26.8489 9.37858 37.9017 10.9115 37.9017C12.4445 37.9017 22.6466 28.3368 24.7082 28.4431C26.7697 28.5494 39.4563 39.1239 40.4606 37.9017C41.465 36.6795 34.8574 26.2644 35.4917 24.7766C36.1261 23.2887 49.7641 12.3954 47.8083 12.3954C45.8524 12.3954 34.2759 16.0619 31.8972 14.9991Z" stroke="black" stroke-opacity="0.4" stroke-width="4" stroke-linecap="round"/>
</svg>
