<svg width="78" height="75" viewBox="0 0 78 75" fill="none" xmlns="http://www.w3.org/2000/svg">
<g opacity="0.4">
<path d="M7.66377 11.6136C7.66377 11.6136 17.304 9.17244 25.101 14.1826C33.026 19.2751 39.1213 31.8074 32.0708 37.9766C28.2781 41.2953 24.016 41.9655 20.29 38.5299C16.5764 35.1057 16.47 30.3945 19.0492 26.0837C24.5712 16.8542 40.0675 20.031 48.0662 27.3095C56.081 34.6025 60.8628 49.98 52.1342 56.3009C48.0518 59.2573 43.3243 59.7666 39.6827 56.2417C36.1131 52.7865 35.8362 47.993 38.4419 43.7955C44.0013 34.8401 59.7693 36.6698 66.9001 44.5108C71.5561 49.6306 72.8162 55.1613 70.8297 61.7571" stroke="black" stroke-width="4" stroke-linecap="round"/>
</g>
</svg>
