<svg width="84" height="79" viewBox="0 0 84 79" fill="none" xmlns="http://www.w3.org/2000/svg">
<path opacity="0.4" d="M47.9794 35.1325C48.2848 32.1697 84.2278 40.9801 81.4125 27.9237C78.7359 15.51 48.5731 29.3729 48.864 26.5509C49.1548 23.729 52.825 4.17435 44.0453 1.94232C34.2399 -0.550444 37.1497 25.8617 35.7932 26.4998C34.4367 27.1379 20.44 14.6647 15.1024 21.0886C9.57276 27.7436 26.3631 38.7 26.2019 40.2642C26.0406 41.8284 -3.84038 46.9189 3.5048 54.317C9.47424 60.3294 25.2917 49.0942 25.0315 51.6182C24.7714 54.1422 21.3568 72.8209 30.6103 76.7817C41.9192 81.6223 36.9257 48.2654 39.4475 46.5473C41.9693 44.8291 58.776 64.37 64.6559 55.7026C70.4615 47.1446 47.674 38.0952 47.9794 35.1325Z" stroke="black" stroke-width="3" stroke-linecap="round"/>
</svg>
