<svg width="62" height="49" viewBox="0 0 62 49" fill="none" xmlns="http://www.w3.org/2000/svg">
<path d="M39.6965 18.2489C36.6972 16.9205 30.632 0.115512 28.5659 2.17462C26.4997 4.23372 23.4337 18.2489 21.5009 18.2489C19.5681 18.2489 1.03926 13.2672 2.03901 14.9942C3.03877 16.7212 17.6352 27.8802 17.5686 30.4707C17.5019 33.0612 11.3034 46.8771 13.2363 46.8771C15.1691 46.8771 28.0327 34.921 30.632 35.0539C33.2314 35.1867 49.2275 48.4048 50.4939 46.8771C51.7602 45.3494 43.4289 32.3305 44.2287 30.4707C45.0285 28.6109 62.2243 14.9942 59.7583 14.9942C57.2922 14.9942 42.6958 19.5773 39.6965 18.2489Z" stroke="black" stroke-opacity="0.4" stroke-width="4" stroke-linecap="round"/>
</svg>
